<svg version="1.1" id="Layer_1" xmlns="http://www.w3.org/2000/svg" xmlns:xlink="http://www.w3.org/1999/xlink" x="0px" y="0px"
	 width="100%" viewBox="0 0 4602 2499" enable-background="new 0 0 4602 2499" xml:space="preserve">
<path fill="#000000" opacity="1.000000" stroke="none" 
	d="
M3122.000000,2.000000 
	C3398.046631,2.000000 3674.093506,2.000000 3951.735840,2.530669 
	C3951.749268,4.127634 3950.303955,5.567752 3948.564209,6.203627 
	C3925.880859,14.495378 3909.513672,29.794123 3898.633545,51.132137 
	C3885.781006,76.338493 3873.035645,101.599564 3860.279785,126.854927 
	C3840.919922,165.185623 3821.584961,203.528870 3802.250488,241.872421 
	C3781.717285,282.593964 3761.202148,323.324463 3740.670898,364.046936 
	C3721.188721,402.689148 3701.692383,441.324127 3682.209473,479.965942 
	C3661.677490,520.688049 3641.156738,561.416016 3620.625732,602.138611 
	C3601.143799,640.780701 3581.651367,679.417480 3562.168457,718.059204 
	C3541.636475,758.781433 3521.111328,799.507202 3500.581787,840.230713 
	C3481.400146,878.279053 3462.215332,916.325684 3443.034668,954.374451 
	C3422.655762,994.800842 3402.284668,1035.231201 3381.901855,1075.655640 
	C3362.268311,1114.594360 3342.619629,1153.525391 3322.986328,1192.464233 
	C3302.303955,1233.483032 3281.635742,1274.508911 3260.952881,1315.527588 
	C3241.618896,1353.871948 3222.268066,1392.207886 3202.935791,1430.553101 
	C3161.573730,1512.593384 3120.200195,1594.627808 3078.868652,1676.683594 
	C3050.864014,1732.281250 3023.028564,1787.964355 2994.902100,1843.500366 
	C2983.616211,1865.784790 2966.699219,1881.910278 2942.114746,1888.886597 
	C2937.482666,1890.200806 2932.765137,1891.214478 2927.152344,1892.227295 
	C2924.553223,1892.059814 2922.888916,1892.006958 2921.224854,1892.006958 
	C2727.807617,1892.002441 2534.390137,1892.000977 2340.972900,1892.012085 
	C2338.648438,1892.012207 2336.323730,1892.177734 2333.205078,1892.154175 
	C2312.626465,1889.093262 2295.890869,1880.102783 2282.928711,1865.083618 
	C2276.262451,1857.359497 2270.732910,1848.478760 2265.691650,1839.554565 
	C2198.914062,1721.340820 2132.318848,1603.023926 2065.667725,1484.738647 
	C2045.084106,1448.208984 2025.479370,1411.078247 2003.590576,1375.347412 
	C1980.659912,1337.916260 1947.499512,1329.454590 1909.844482,1338.668213 
	C1884.826050,1344.789917 1868.653809,1363.324341 1857.248535,1385.954224 
	C1840.913940,1418.364380 1824.498291,1450.733887 1808.142334,1483.133179 
	C1788.784790,1521.478027 1769.443848,1559.831299 1750.114258,1598.190186 
	C1729.885376,1638.333618 1709.693604,1678.495728 1689.457275,1718.635376 
	C1669.670776,1757.883057 1649.836182,1797.106201 1630.044556,1836.351440 
	C1588.961914,1917.815186 1547.894165,1999.286499 1506.819702,2080.754639 
	C1488.231812,2117.622314 1469.626221,2154.481445 1451.057861,2191.359375 
	C1422.754761,2247.571289 1394.408325,2303.761230 1366.232178,2360.036865 
	C1358.243164,2375.993164 1354.421021,2392.852783 1355.604126,2410.921387 
	C1356.596802,2426.081787 1360.449463,2440.320801 1367.372437,2453.660400 
	C1378.411621,2474.931396 1395.095093,2489.987061 1417.975220,2497.856201 
	C1419.770752,2498.473877 1421.359375,2499.693359 1423.044067,2500.633057 
	C1422.696045,2501.088623 1422.348022,2501.544189 1422.000000,2502.000000 
	C1144.619995,2502.000000 867.240051,2502.000000 588.261108,2501.425049 
	C587.625549,2499.993896 588.466431,2498.618652 589.570435,2498.358154 
	C616.238525,2492.066406 633.568909,2474.675781 645.634155,2451.149170 
	C658.239014,2426.570557 670.660950,2401.897949 683.111450,2377.240479 
	C703.366272,2337.127686 723.578857,2296.993408 743.810425,2256.868652 
	C763.590149,2217.640137 783.372437,2178.412354 803.151672,2139.183350 
	C823.382812,2099.058350 843.610352,2058.931641 863.841919,2018.806763 
	C883.621643,1979.578003 903.414612,1940.355957 923.183350,1901.121826 
	C942.954041,1861.883667 962.683899,1822.625122 982.465332,1783.392578 
	C1002.244995,1744.163330 1022.084106,1704.964233 1041.863892,1665.735229 
	C1062.095093,1625.610596 1082.268799,1585.457153 1102.499023,1545.332153 
	C1122.277710,1506.102539 1142.111694,1466.900757 1161.892822,1427.672363 
	C1182.874756,1386.062378 1203.810669,1344.429199 1224.789795,1302.817871 
	C1243.818848,1265.074097 1262.887085,1227.350220 1281.922241,1189.609741 
	C1303.058105,1147.704468 1324.167603,1105.786133 1345.304932,1063.881714 
	C1364.041992,1026.736206 1382.815552,989.609192 1401.547485,952.461121 
	C1422.229492,911.445374 1442.896118,870.421692 1463.545044,829.389221 
	C1491.674072,773.492432 1519.629150,717.507324 1547.963135,661.714600 
	C1560.901611,636.237305 1579.577759,617.532715 1609.489990,613.359436 
	C1610.368774,613.236816 1611.134399,612.303345 1612.885254,611.868896 
	C1809.929443,611.992981 2006.041016,611.997375 2202.152588,611.986877 
	C2205.477783,611.986694 2208.802979,611.805481 2212.882324,611.908081 
	C2241.473389,617.183411 2260.972656,633.356934 2274.578125,657.579590 
	C2297.702148,698.747986 2320.972656,739.833984 2344.142578,780.976624 
	C2374.655518,835.158569 2405.131348,889.361206 2435.620850,943.556274 
	C2469.859863,1004.416260 2503.794434,1065.450439 2538.488770,1126.050049 
	C2551.575684,1148.908447 2571.443604,1163.645630 2598.697998,1168.634521 
	C2606.950928,1168.756836 2614.485352,1168.512329 2622.790039,1168.134277 
	C2624.751221,1167.486572 2625.895996,1166.743652 2627.140137,1166.491577 
	C2652.285400,1161.399780 2670.552979,1146.772217 2682.289062,1124.572144 
	C2700.642334,1089.853760 2718.151123,1054.687500 2735.887207,1019.644836 
	C2756.182617,979.545105 2776.320557,939.365906 2796.553467,899.234680 
	C2816.335205,859.999023 2836.154541,820.782532 2855.948486,781.552917 
	C2875.894287,742.022156 2895.830811,702.486450 2915.767822,662.951111 
	C2935.552734,623.717407 2955.337158,584.483459 2975.114990,545.246155 
	C2996.693359,502.437164 3018.260742,459.622681 3039.838867,416.813538 
	C3058.117920,380.549133 3076.426025,344.299347 3094.684082,308.024445 
	C3121.924805,253.902328 3149.154541,199.774780 3176.334717,145.622299 
	C3181.584473,135.162735 3185.823975,124.349823 3186.694824,112.120636 
	C3187.163818,111.175240 3187.241943,110.542679 3187.457520,109.005089 
	C3187.515137,100.771675 3187.435059,93.443298 3187.449219,85.610062 
	C3187.132568,84.582520 3186.721436,84.059830 3186.311035,82.728790 
	C3179.426025,44.914753 3161.500732,17.040522 3123.457520,5.680542 
	C3122.287354,5.331120 3119.017334,4.568690 3122.000000,2.000000 
z"/>
<path fill="#F04E23" opacity="1.000000" stroke="none" 
	d="
M1422.937256,2502.000000 
	C1422.348022,2501.544189 1422.696045,2501.088623 1423.044067,2500.633057 
	C1421.359375,2499.693359 1419.770752,2498.473877 1417.975220,2497.856201 
	C1395.095093,2489.987061 1378.411621,2474.931396 1367.372437,2453.660400 
	C1360.449463,2440.320801 1356.596802,2426.081787 1355.604126,2410.921387 
	C1354.421021,2392.852783 1358.243164,2375.993164 1366.232178,2360.036865 
	C1394.408325,2303.761230 1422.754761,2247.571289 1451.057861,2191.359375 
	C1469.626221,2154.481445 1488.231812,2117.622314 1506.819702,2080.754639 
	C1547.894165,1999.286499 1588.961914,1917.815186 1630.044556,1836.351440 
	C1649.836182,1797.106201 1669.670776,1757.883057 1689.457275,1718.635376 
	C1709.693604,1678.495728 1729.885376,1638.333618 1750.114258,1598.190186 
	C1769.443848,1559.831299 1788.784790,1521.478027 1808.142334,1483.133179 
	C1824.498291,1450.733887 1840.913940,1418.364380 1857.248535,1385.954224 
	C1868.653809,1363.324341 1884.826050,1344.789917 1909.844482,1338.668213 
	C1947.499512,1329.454590 1980.659912,1337.916260 2003.590576,1375.347412 
	C2025.479370,1411.078247 2045.084106,1448.208984 2065.667725,1484.738647 
	C2132.318848,1603.023926 2198.914062,1721.340820 2265.691650,1839.554565 
	C2270.732910,1848.478760 2276.262451,1857.359497 2282.928711,1865.083618 
	C2295.890869,1880.102783 2312.626465,1889.093262 2333.939697,1892.525146 
	C2339.098389,1893.338013 2342.727783,1893.956421 2346.357422,1893.957275 
	C2536.355469,1894.003906 2726.353516,1894.008179 2916.351562,1893.930176 
	C2920.263672,1893.928467 2924.175293,1892.910400 2928.087158,1892.366699 
	C2932.765137,1891.214478 2937.482666,1890.200806 2942.114746,1888.886597 
	C2966.699219,1881.910278 2983.616211,1865.784790 2994.902100,1843.500366 
	C3023.028564,1787.964355 3050.864014,1732.281250 3078.868652,1676.683594 
	C3120.200195,1594.627808 3161.573730,1512.593384 3202.935791,1430.553101 
	C3222.268066,1392.207886 3241.618896,1353.871948 3260.952881,1315.527588 
	C3281.635742,1274.508911 3302.303955,1233.483032 3322.986328,1192.464233 
	C3342.619629,1153.525391 3362.268311,1114.594360 3381.901855,1075.655640 
	C3402.284668,1035.231201 3422.655762,994.800842 3443.034668,954.374451 
	C3462.215332,916.325684 3481.400146,878.279053 3500.581787,840.230713 
	C3521.111328,799.507202 3541.636475,758.781433 3562.168457,718.059204 
	C3581.651367,679.417480 3601.143799,640.780701 3620.625732,602.138611 
	C3641.156738,561.416016 3661.677490,520.688049 3682.209473,479.965942 
	C3701.692383,441.324127 3721.188721,402.689148 3740.670898,364.046936 
	C3761.202148,323.324463 3781.717285,282.593964 3802.250488,241.872421 
	C3821.584961,203.528870 3840.919922,165.185623 3860.279785,126.854927 
	C3873.035645,101.599564 3885.781006,76.338493 3898.633545,51.132137 
	C3909.513672,29.794123 3925.880859,14.495378 3948.564209,6.203627 
	C3950.303955,5.567752 3951.749268,4.127634 3952.665771,2.530669 
	C4125.375000,2.000000 4298.750000,2.000000 4472.323242,2.506245 
	C4476.629395,4.784174 4480.784180,6.454912 4484.837402,8.343501 
	C4520.002441,24.728914 4536.204590,54.023033 4539.443359,91.121712 
	C4541.226074,111.543411 4536.055664,130.945465 4526.589355,149.395645 
	C4499.536133,202.124176 4472.948730,255.092041 4446.206543,307.979889 
	C4416.008301,367.702454 4385.848145,427.444336 4355.657227,487.170624 
	C4325.465332,546.897400 4295.260254,606.617249 4265.052734,666.335938 
	C4234.845703,726.054626 4204.620117,785.763916 4174.417969,845.484985 
	C4144.365723,904.908813 4114.328125,964.339661 4084.293701,1023.772217 
	C4053.959229,1083.799194 4023.644043,1143.836060 3993.305908,1203.861328 
	C3963.268311,1263.292358 3933.213379,1322.715088 3903.163818,1382.140015 
	C3872.813477,1442.159180 3842.463867,1502.178711 3812.107910,1562.195190 
	C3782.202393,1621.320190 3752.283447,1680.438477 3722.382568,1739.565674 
	C3691.730225,1800.178345 3661.085205,1860.794556 3630.448975,1921.415405 
	C3600.713867,1980.253174 3570.999023,2039.101318 3541.265381,2097.940186 
	C3510.781250,2158.264404 3480.243896,2218.562256 3449.807129,2278.910645 
	C3422.216553,2333.615479 3394.771729,2388.394043 3367.145996,2443.081055 
	C3363.401367,2450.493896 3359.455322,2457.891602 3354.770508,2464.725586 
	C3343.709961,2480.860352 3328.733398,2492.016846 3310.030518,2498.104004 
	C3308.322754,2498.659668 3304.160645,2497.476074 3306.000000,2502.000000 
	C2678.625000,2502.000000 2051.249756,2502.000000 1422.937256,2502.000000 
z"/>
<path fill="#F04E23" opacity="1.000000" stroke="none" 
	d="
M1611.952759,611.747864 
	C1611.134399,612.303345 1610.368774,613.236816 1609.489990,613.359436 
	C1579.577759,617.532715 1560.901611,636.237305 1547.963135,661.714600 
	C1519.629150,717.507324 1491.674072,773.492432 1463.545044,829.389221 
	C1442.896118,870.421692 1422.229492,911.445374 1401.547485,952.461121 
	C1382.815552,989.609192 1364.041992,1026.736206 1345.304932,1063.881714 
	C1324.167603,1105.786133 1303.058105,1147.704468 1281.922241,1189.609741 
	C1262.887085,1227.350220 1243.818848,1265.074097 1224.789795,1302.817871 
	C1203.810669,1344.429199 1182.874756,1386.062378 1161.892822,1427.672363 
	C1142.111694,1466.900757 1122.277710,1506.102539 1102.499023,1545.332153 
	C1082.268799,1585.457153 1062.095093,1625.610596 1041.863892,1665.735229 
	C1022.084106,1704.964233 1002.244995,1744.163330 982.465332,1783.392578 
	C962.683899,1822.625122 942.954041,1861.883667 923.183350,1901.121826 
	C903.414612,1940.355957 883.621643,1979.578003 863.841919,2018.806763 
	C843.610352,2058.931641 823.382812,2099.058350 803.151672,2139.183350 
	C783.372437,2178.412354 763.590149,2217.640137 743.810425,2256.868652 
	C723.578857,2296.993408 703.366272,2337.127686 683.111450,2377.240479 
	C670.660950,2401.897949 658.239014,2426.570557 645.634155,2451.149170 
	C633.568909,2474.675781 616.238525,2492.066406 589.570435,2498.358154 
	C588.466431,2498.618652 587.625549,2499.993896 587.331055,2501.425049 
	C415.958221,2502.000000 243.916428,2502.000000 71.566444,2501.436523 
	C69.299332,2499.785889 67.453453,2498.358398 65.363960,2497.664795 
	C44.197689,2490.640625 28.587624,2476.789062 17.617506,2457.807129 
	C13.382717,2450.479736 11.083647,2442.054443 7.536510,2434.296631 
	C6.405580,2431.823242 7.659336,2426.674561 2.000000,2428.000000 
	C2.000000,2426.500000 2.000000,2425.000000 2.536508,2423.021484 
	C2.715339,2421.695557 2.357663,2420.847656 1.999993,2420.000000 
	C2.000000,2409.955811 2.000000,2399.911621 2.711880,2389.420410 
	C4.036932,2388.196533 5.104745,2387.468750 5.195166,2386.635010 
	C6.585941,2373.807617 12.780207,2362.777588 18.417406,2351.602783 
	C45.402504,2298.111328 72.561584,2244.707275 99.611351,2191.248047 
	C130.418716,2130.362793 161.169861,2069.449219 191.956467,2008.553223 
	C221.691345,1949.737549 251.447800,1890.932739 281.181000,1832.116211 
	C311.514984,1772.111084 341.821625,1712.092041 372.159485,1652.088745 
	C402.046753,1592.976807 431.965454,1533.880981 461.856812,1474.771118 
	C492.499329,1414.175781 523.125488,1353.572021 553.758606,1292.971924 
	C583.490540,1234.154541 613.223633,1175.337891 642.953918,1116.519775 
	C673.585205,1055.919067 704.208862,995.314636 734.844849,934.716309 
	C764.880066,875.306213 794.928223,815.902527 824.967957,756.494690 
	C855.308533,696.492126 885.643311,636.486755 915.984741,576.484741 
	C945.875366,517.374512 975.781250,458.271912 1005.661987,399.156586 
	C1036.743774,337.664978 1067.838013,276.179657 1098.862183,214.658920 
	C1125.541504,161.753906 1152.119629,108.797775 1178.764526,55.875393 
	C1185.862427,41.777569 1194.124512,28.372952 1207.475464,19.417696 
	C1215.402100,14.100802 1224.353027,10.310731 1232.844604,5.836391 
	C1234.435425,4.998074 1237.591064,5.453149 1236.000000,2.000000 
	C1864.041870,2.000000 2492.083740,2.000000 3121.062744,2.000000 
	C3119.017334,4.568690 3122.287354,5.331120 3123.457520,5.680542 
	C3161.500732,17.040522 3179.426025,44.914753 3186.305664,83.217270 
	C3186.446289,85.182945 3186.797852,85.716553 3187.354736,86.114914 
	C3187.435059,93.443298 3187.515137,100.771675 3187.113770,109.340805 
	C3186.259766,111.152107 3186.150146,111.769417 3186.303955,112.433472 
	C3185.823975,124.349823 3181.584473,135.162735 3176.334717,145.622299 
	C3149.154541,199.774780 3121.924805,253.902328 3094.684082,308.024445 
	C3076.426025,344.299347 3058.117920,380.549133 3039.838867,416.813538 
	C3018.260742,459.622681 2996.693359,502.437164 2975.114990,545.246155 
	C2955.337158,584.483459 2935.552734,623.717407 2915.767822,662.951111 
	C2895.830811,702.486450 2875.894287,742.022156 2855.948486,781.552917 
	C2836.154541,820.782532 2816.335205,859.999023 2796.553467,899.234680 
	C2776.320557,939.365906 2756.182617,979.545105 2735.887207,1019.644836 
	C2718.151123,1054.687500 2700.642334,1089.853760 2682.289062,1124.572144 
	C2670.552979,1146.772217 2652.285400,1161.399780 2627.140137,1166.491577 
	C2625.895996,1166.743652 2624.751221,1167.486572 2621.875488,1168.007935 
	C2612.787109,1168.099365 2605.383301,1168.183594 2597.979736,1168.267822 
	C2571.443604,1163.645630 2551.575684,1148.908447 2538.488770,1126.050049 
	C2503.794434,1065.450439 2469.859863,1004.416260 2435.620850,943.556274 
	C2405.131348,889.361206 2374.655518,835.158569 2344.142578,780.976624 
	C2320.972656,739.833984 2297.702148,698.747986 2274.578125,657.579590 
	C2260.972656,633.356934 2241.473389,617.183411 2212.153809,611.494873 
	C2207.372559,610.589050 2204.074463,610.040039 2200.776123,610.039307 
	C2008.393799,609.997681 1816.011597,609.991150 1623.629272,610.073730 
	C1619.736816,610.075439 1615.844971,611.165527 1611.952759,611.747864 
z"/>
<path fill="#000000" opacity="1.000000" stroke="none" 
	d="
M3306.937256,2502.000000 
	C3304.160645,2497.476074 3308.322754,2498.659668 3310.030518,2498.104004 
	C3328.733398,2492.016846 3343.709961,2480.860352 3354.770508,2464.725586 
	C3359.455322,2457.891602 3363.401367,2450.493896 3367.145996,2443.081055 
	C3394.771729,2388.394043 3422.216553,2333.615479 3449.807129,2278.910645 
	C3480.243896,2218.562256 3510.781250,2158.264404 3541.265381,2097.940186 
	C3570.999023,2039.101318 3600.713867,1980.253174 3630.448975,1921.415405 
	C3661.085205,1860.794556 3691.730225,1800.178345 3722.382568,1739.565674 
	C3752.283447,1680.438477 3782.202393,1621.320190 3812.107910,1562.195190 
	C3842.463867,1502.178711 3872.813477,1442.159180 3903.163818,1382.140015 
	C3933.213379,1322.715088 3963.268311,1263.292358 3993.305908,1203.861328 
	C4023.644043,1143.836060 4053.959229,1083.799194 4084.293701,1023.772217 
	C4114.328125,964.339661 4144.365723,904.908813 4174.417969,845.484985 
	C4204.620117,785.763916 4234.845703,726.054626 4265.052734,666.335938 
	C4295.260254,606.617249 4325.465332,546.897400 4355.657227,487.170624 
	C4385.848145,427.444336 4416.008301,367.702454 4446.206543,307.979889 
	C4472.948730,255.092041 4499.536133,202.124176 4526.589355,149.395645 
	C4536.055664,130.945465 4541.226074,111.543411 4539.443359,91.121712 
	C4536.204590,54.023033 4520.002441,24.728914 4484.837402,8.343501 
	C4480.784180,6.454912 4476.629395,4.784174 4473.260742,2.506245 
	C4517.323730,2.000000 4560.647461,2.000000 4603.978516,2.000000 
	C4603.985352,835.138123 4603.985352,1668.276245 4603.985352,2502.000000 
	C4171.958496,2502.000000 3739.916504,2502.000000 3306.937256,2502.000000 
z"/>
<path fill="#000000" opacity="1.000000" stroke="none" 
	d="
M1235.062744,2.000000 
	C1237.591064,5.453149 1234.435425,4.998074 1232.844604,5.836391 
	C1224.353027,10.310731 1215.402100,14.100802 1207.475464,19.417696 
	C1194.124512,28.372952 1185.862427,41.777569 1178.764526,55.875393 
	C1152.119629,108.797775 1125.541504,161.753906 1098.862183,214.658920 
	C1067.838013,276.179657 1036.743774,337.664978 1005.661987,399.156586 
	C975.781250,458.271912 945.875366,517.374512 915.984741,576.484741 
	C885.643311,636.486755 855.308533,696.492126 824.967957,756.494690 
	C794.928223,815.902527 764.880066,875.306213 734.844849,934.716309 
	C704.208862,995.314636 673.585205,1055.919067 642.953918,1116.519775 
	C613.223633,1175.337891 583.490540,1234.154541 553.758606,1292.971924 
	C523.125488,1353.572021 492.499329,1414.175781 461.856812,1474.771118 
	C431.965454,1533.880981 402.046753,1592.976807 372.159485,1652.088745 
	C341.821625,1712.092041 311.514984,1772.111084 281.181000,1832.116211 
	C251.447800,1890.932739 221.691345,1949.737549 191.956467,2008.553223 
	C161.169861,2069.449219 130.418716,2130.362793 99.611351,2191.248047 
	C72.561584,2244.707275 45.402504,2298.111328 18.417406,2351.602783 
	C12.780207,2362.777588 6.585941,2373.807617 5.195166,2386.635010 
	C5.104745,2387.468750 4.036932,2388.196533 2.711880,2388.486816 
	C2.000000,1592.858887 2.000000,797.717712 2.000000,2.000000 
	C412.708282,2.000000 823.416809,2.000000 1235.062744,2.000000 
z"/>
<path fill="#030000" opacity="1.000000" stroke="none" 
	d="
M2.000000,2428.937256 
	C7.659336,2426.674561 6.405580,2431.823242 7.536510,2434.296631 
	C11.083647,2442.054443 13.382717,2450.479736 17.617506,2457.807129 
	C28.587624,2476.789062 44.197689,2490.640625 65.363960,2497.664795 
	C67.453453,2498.358398 69.299332,2499.785889 70.629128,2501.436523 
	C47.473915,2502.000000 24.947834,2502.000000 2.000000,2502.000000 
	C2.000000,2477.959717 2.000000,2453.917236 2.000000,2428.937256 
z"/>
<path fill="#030000" opacity="1.000000" stroke="none" 
	d="
M1.999993,2420.500000 
	C2.357663,2420.847656 2.715339,2421.695557 2.536508,2422.271484 
	C2.000000,2422.000000 2.000000,2421.000000 1.999993,2420.500000 
z"/>
<path fill="#B32812" opacity="1.000000" stroke="none" 
	d="
M1612.885254,611.868896 
	C1615.844971,611.165527 1619.736816,610.075439 1623.629272,610.073730 
	C1816.011597,609.991150 2008.393799,609.997681 2200.776123,610.039307 
	C2204.074463,610.040039 2207.372559,610.589050 2211.399414,611.295532 
	C2208.802979,611.805481 2205.477783,611.986694 2202.152588,611.986877 
	C2006.041016,611.997375 1809.929443,611.992981 1612.885254,611.868896 
z"/>
<path fill="#B44E23" opacity="1.000000" stroke="none" 
	d="
M2927.152344,1892.227295 
	C2924.175293,1892.910400 2920.263672,1893.928467 2916.351562,1893.930176 
	C2726.353516,1894.008179 2536.355469,1894.003906 2346.357422,1893.957275 
	C2342.727783,1893.956421 2339.098389,1893.338013 2334.733887,1892.636963 
	C2336.323730,1892.177734 2338.648438,1892.012207 2340.972900,1892.012085 
	C2534.390137,1892.000977 2727.807617,1892.002441 2921.224854,1892.006958 
	C2922.888916,1892.006958 2924.553223,1892.059814 2927.152344,1892.227295 
z"/>
<path fill="#390000" opacity="1.000000" stroke="none" 
	d="
M2598.697998,1168.634521 
	C2605.383301,1168.183594 2612.787109,1168.099365 2621.105469,1168.141479 
	C2614.485352,1168.512329 2606.950928,1168.756836 2598.697998,1168.634521 
z"/>
<path fill="#B03A1A" opacity="1.000000" stroke="none" 
	d="
M3187.449219,85.610062 
	C3186.797852,85.716553 3186.446289,85.182945 3186.305176,84.025620 
	C3186.721436,84.059830 3187.132568,84.582520 3187.449219,85.610062 
z"/>
<path fill="#B03A1A" opacity="1.000000" stroke="none" 
	d="
M3186.694824,112.120636 
	C3186.150146,111.769417 3186.259766,111.152107 3186.976318,110.245834 
	C3187.241943,110.542679 3187.163818,111.175240 3186.694824,112.120636 
z"/>
</svg>